<svg width="74" height="74" viewBox="0 0 74 74" fill="none" xmlns="http://www.w3.org/2000/svg">
<path d="M25.7459 64.75V60.125H32.375V52.4167H10.7917C9.55835 52.4167 8.47919 51.9542 7.55419 51.0292C6.62919 50.1042 6.16669 49.025 6.16669 47.7917V13.875C6.16669 12.6417 6.62919 11.5625 7.55419 10.6375C8.47919 9.7125 9.55835 9.25 10.7917 9.25H63.2084C64.4417 9.25 65.5209 9.7125 66.4459 10.6375C67.3709 11.5625 67.8334 12.6417 67.8334 13.875V47.7917C67.8334 49.025 67.3709 50.1042 66.4459 51.0292C65.5209 51.9542 64.4417 52.4167 63.2084 52.4167H41.625V60.125H48.2542V64.75H25.7459ZM10.7917 47.7917H63.2084V13.875H10.7917V47.7917Z" fill="#FD8E78"/>
</svg>
